<svg preserveAspectRatio="none" width="100%" height="100%" overflow="visible" style="display: block;" viewBox="0 0 146 18" fill="none" xmlns="http://www.w3.org/2000/svg">
<g id="Logo" clip-path="url(#clip0_0_2538)">
<path id="Vector" d="M16.7843 13.3744C14.5152 13.3744 14.3424 11.6418 14.3424 11.1067C14.3424 10.481 14.5024 9.37293 15.9492 8.83742C17.4391 8.2842 17.7579 8.21971 18.7846 7.89739V7.62462C18.7846 7.12496 18.7846 7.00411 18.6848 6.68943C18.4893 6.09912 17.9215 5.72077 17.1534 5.72077C16.3854 5.72077 15.7509 6.1495 15.4656 6.77042L15.0458 6.52018C15.3136 5.56526 16.2629 4.61632 17.9032 4.61632C19.0699 4.61632 19.8328 4.94995 20.2972 5.67039C20.6523 6.24134 20.6823 7.03514 20.6823 7.8591C20.6823 8.58759 20.6615 9.3955 20.648 10.0482C20.6364 10.5003 20.6256 10.8863 20.6256 11.1256C20.6256 11.7192 20.719 12.1797 21.211 12.1797C21.4125 12.1797 21.4532 12.1253 21.6259 11.9843L21.8961 12.2974C21.4532 12.8796 20.9672 13.3603 20.1512 13.3603C19.4896 13.3603 19.028 13.0387 18.8752 12.5037C18.5029 12.8917 17.8358 13.3744 16.7843 13.3744ZM18.7846 8.93896C17.6745 9.27663 17.2927 9.46155 16.9519 9.64128C16.4651 9.88302 16.2209 10.3807 16.2209 10.9657C16.2209 11.4218 16.3829 12.1894 17.4683 12.1894C17.8254 12.1894 18.3405 12.1201 18.7846 11.7977V8.93896ZM0.0630448 12.9179C0.0630448 12.0697 0.0698273 11.3497 0 10.4802H0.496391C0.502765 11.0168 0.651613 11.4141 0.882627 11.6797C1.23695 12.083 2.05809 12.3276 2.819 12.3276C4.40905 12.3276 5.1512 11.7192 5.1512 10.4109C5.1512 9.29074 4.46691 8.82615 3.51727 8.17944L3.37083 8.07588L2.37213 7.40178C0.980769 6.47425 0.26934 5.72844 0.26934 4.24082C0.26934 3.51233 0.544645 1.13828 4.04557 1.13828C4.92979 1.13828 6.09091 1.23297 6.79115 1.3631C6.78518 1.47793 6.7728 2.01988 6.7728 2.4772C6.7728 3.00785 6.77239 3.18312 6.79315 3.83185H6.36822C6.35543 3.26089 6.19984 2.8938 5.95481 2.64641C5.61528 2.30795 4.87112 2.14882 4.08308 2.14882C2.22769 2.14882 2.00861 3.1098 2.00861 3.83185C2.00861 4.8291 2.51297 5.16475 3.61304 5.90087L4.88309 6.74624C5.96282 7.47312 6.97869 8.15931 6.97869 9.96724C6.97869 13.0279 4.15491 13.3563 2.9419 13.3563C1.84023 13.3563 0.956826 13.2193 0.0630448 12.9179ZM22.6434 5.17845C23.0683 5.21187 23.7076 5.16834 24.3332 5.05958C24.8599 4.96691 25.0514 4.89153 25.4444 4.69129L25.61 4.78998V5.46046C26.0326 5.14659 26.8797 4.64859 28.0352 4.64859C29.5383 4.64859 30.5239 5.35896 30.8032 6.65155C30.8818 6.97185 30.9129 7.74349 30.9129 8.15931V10.6224C30.9129 12.0165 30.9668 12.4041 31.2249 12.6532C31.3566 12.77 31.6638 12.8977 32.0349 12.8977V13.2926C31.4986 13.2664 30.5426 13.2108 29.9672 13.2108C29.2011 13.2108 28.3401 13.2475 27.8756 13.3007V12.9139C28.2894 12.8695 28.5727 12.7475 28.7183 12.6048C28.9597 12.3598 29.0016 11.8731 29.0367 10.8239C29.0475 10.5116 29.0555 9.84956 29.0555 9.36484C29.0555 8.73546 29.0555 8.07951 28.9836 7.43685C28.86 6.3433 28.2914 5.8372 27.2121 5.8372C26.4575 5.8372 25.9963 6.01049 25.6439 6.19018V10.6224C25.6439 12.0165 25.6986 12.4041 25.9632 12.6532C26.0896 12.77 26.4168 12.9006 26.7692 12.8977V13.2926C26.0769 13.2555 25.2469 13.2108 24.7143 13.2108C23.603 13.2108 23.2527 13.2334 22.6075 13.3007V12.9006C22.9694 12.8957 23.3197 12.7656 23.5153 12.5403C23.7698 12.2502 23.7858 11.5298 23.7858 10.0946V7.68305C23.7858 6.63822 23.7658 6.19625 23.619 5.96936C23.5052 5.79409 23.2192 5.65508 22.6434 5.66193V5.17845ZM33.0296 12.8917C33.37 12.8977 33.7339 12.766 33.9374 12.5343C34.1967 12.2409 34.2107 11.5298 34.2107 10.0946V5.90813H33.1214V5.43347C33.5791 5.25498 33.982 5.04344 34.2107 4.86334C34.2127 4.11992 34.2358 3.15292 34.3364 2.62627C34.6576 0.887624 35.7935 0 37.6848 0C38.52 0 39.314 0.288077 39.7916 0.701088L39.8188 0.878382L38.9888 2.04001L38.7873 2.04282C38.504 1.34297 38.0799 0.942046 37.3309 0.942046C37.0716 0.942046 36.7113 1.02424 36.489 1.24506C36.1311 1.60889 36.0681 2.15084 36.0681 3.22945V4.86013H37.9334V5.90813H36.0681V10.5889C36.0681 11.699 36.1072 12.2442 36.2497 12.4646C36.4823 12.8171 37.2172 12.8595 37.5783 12.8454V13.2926C36.9639 13.2551 36.0114 13.2108 35.298 13.2108C34.2613 13.2108 33.587 13.2414 33.0296 13.3007V12.8917ZM42.6445 13.4457C40.0933 13.4457 38.5691 11.8388 38.5691 9.15454C38.5691 7.06332 39.6831 4.63085 42.8201 4.63085C45.371 4.63085 46.8912 6.2333 46.8912 8.92282C46.8912 11.004 45.7796 13.4457 42.6445 13.4457ZM42.7507 5.60672C42.2527 5.60672 41.8597 5.73566 41.5625 5.98953C40.8941 6.55888 40.553 7.58914 40.553 9.06307C40.553 9.63117 40.6587 12.4686 42.7156 12.4686C43.2056 12.4686 43.6054 12.3397 43.8935 12.0887C44.5702 11.5189 44.9082 10.4834 44.9082 9.00869C44.9082 8.44619 44.8044 5.60672 42.7507 5.60672ZM47.7331 5.1482C48.3037 5.18084 48.917 5.11115 49.5618 4.99628C50.0581 4.90766 50.3746 4.79886 50.5541 4.71506L50.7046 4.78998V5.52214C51.1068 5.14057 51.738 4.73924 52.635 4.73924C53.2901 4.73924 53.7251 4.92457 54.0913 5.26022V5.52738L53.3899 6.82963H53.0459C52.8233 6.43597 52.4055 6.06731 51.6542 6.06731C51.3003 6.06731 51.005 6.15474 50.7397 6.33401V10.5889C50.7397 11.699 50.7764 12.2249 50.92 12.4456C51.1527 12.801 51.8457 12.8381 52.2439 12.8244V13.2926C51.6694 13.2604 50.6798 13.2108 49.9676 13.2108C49.1616 13.2108 48.3636 13.2261 47.6992 13.3007V12.8756C48.1641 12.8514 48.4254 12.7213 48.6058 12.5161C48.8659 12.2208 48.8783 11.5298 48.8783 10.0946V7.68263C48.8783 6.63822 48.8715 6.18696 48.7135 5.96936C48.5762 5.77919 48.2738 5.66717 47.7331 5.66193V5.1482ZM59.4931 0.489549C59.9987 0.489549 60.6558 0.395682 61.4578 0.253831C61.9127 0.174447 62.2192 0.0898228 62.366 0.0313988L62.5104 0.11561C62.4394 0.813109 62.4386 2.3821 62.4386 3.49418V10.3754C62.4386 11.4029 62.4554 12.0387 62.6014 12.2442C62.7319 12.4356 63.0411 12.5645 63.5638 12.5665V13.0174C63.0371 13.0174 62.4127 13.0859 61.7675 13.1931C61.3394 13.2636 61.0002 13.3337 60.8406 13.4216L60.6128 13.345V12.633C60.1994 12.9433 59.3734 13.4268 58.279 13.4268C55.9846 13.4268 54.5043 11.8191 54.5043 9.33183C54.5043 8.503 54.6627 7.71808 54.9524 7.05647C55.6575 5.52536 57.1098 4.64859 58.9453 4.64859C59.6156 4.64859 60.2161 4.73239 60.576 4.81016V3.01391C60.576 1.96348 60.5613 1.403 60.4085 1.17735C60.2919 1.00447 60.1204 0.919889 59.4931 0.873554V0.489549ZM59.2027 12.2168C59.7732 12.2168 60.1603 12.1261 60.576 11.8755V6.2224C60.4396 6.09025 59.9328 5.65912 58.9082 5.65912C57.2802 5.65912 56.4914 6.78329 56.4914 9.09731C56.4914 10.0684 56.7799 12.2168 59.2027 12.2168ZM13.5021 12.4574C13.2491 12.7668 12.5979 13.4187 11.2393 13.4187C9.94812 13.4187 9.22709 12.9542 8.90991 11.9114C8.78182 11.4955 8.78182 10.6816 8.78182 10.1921C8.78182 8.84105 8.79538 7.75917 8.80813 6.5073L8.81373 5.9182H7.71206V5.58861C8.15938 5.41334 8.463 5.232 8.75787 5.00516C9.40466 4.49869 9.81885 3.86527 10.314 2.97562H10.6815V4.87139H13.5201V5.9182H10.6815V10.3492C10.6815 11.6756 10.9205 12.4295 12.159 12.4295C12.738 12.4295 13.1203 12.2397 13.3608 12.112L13.5021 12.4574ZM140.908 5.29369C140.677 5.29369 140.411 5.36903 140.232 5.50803C140.088 5.61803 140.052 5.80135 140.052 5.91378C140.052 6.12734 140.128 6.33723 140.277 6.7422L141.502 10.0337C141.686 10.5257 141.819 10.9335 141.907 11.2244L143.404 6.71963C143.583 6.20025 143.612 6.07816 143.612 5.88395C143.612 5.77478 143.545 5.64221 143.466 5.55841C143.318 5.41334 143.064 5.33556 142.764 5.31543V4.8303C142.945 4.8303 143.337 4.85447 143.521 4.86858C143.69 4.88228 144.05 4.90766 144.333 4.90766C144.89 4.90766 145.664 4.8593 146 4.82427V5.31984C145.776 5.34765 145.253 5.27714 144.842 6.55686L141.64 15.2009C141.173 16.4488 140.591 18 138.345 18C137.452 18 136.803 17.7796 136.342 17.3255V17.0906L137.131 16.1183L137.356 16.1143C137.592 16.6405 138.029 16.8589 138.627 16.8589C139.646 16.8589 140.091 15.9785 140.792 14.1101L140.982 13.6033L138.258 6.5649C138.234 6.51535 138.199 6.41785 138.157 6.30703C138.079 6.11723 137.933 5.78724 137.933 5.78724C137.775 5.45283 137.468 5.31139 137.118 5.32389V4.82427C137.634 4.86858 138.519 4.90766 138.977 4.90766C139.283 4.90766 139.736 4.88468 140.137 4.86537C140.36 4.85245 140.733 4.83512 140.908 4.8303V5.29369ZM111.136 5.14255C111.704 5.17482 112.319 5.1043 112.962 4.99109C113.459 4.90283 113.776 4.79283 113.955 4.70821L114.106 4.78355V5.5169C114.509 5.13533 115.14 4.73358 116.036 4.73358C116.692 4.73358 117.126 4.91855 117.492 5.25498V5.52132L116.791 6.82439H116.447C116.224 6.43073 115.807 6.06207 115.055 6.06207C114.702 6.06207 114.406 6.14867 114.141 6.32799V10.5837C114.141 11.6942 114.178 12.2188 114.321 12.4396C114.553 12.795 115.248 12.8324 115.646 12.8192V13.2874C115.071 13.2551 114.082 13.2052 113.37 13.2052C112.562 13.2052 111.765 13.2209 111.1 13.2946V12.8695C111.565 12.8461 111.826 12.7156 112.007 12.5101C112.267 12.2148 112.28 11.5238 112.28 10.0881V7.67698C112.28 6.6322 112.272 6.18172 112.115 5.96333C111.978 5.77317 111.674 5.66115 111.136 5.65632V5.14255ZM73.6021 13.4086C71.2216 13.4086 69.8562 12.6632 69.3036 11.0636C69.0322 10.2404 69.0322 9.27341 69.0322 8.42403V3.90034C69.0322 2.52234 68.9684 2.31604 68.717 2.08915C68.6065 1.99248 68.3061 1.85224 67.9099 1.83128V1.36711C68.4749 1.42755 69.4013 1.45173 69.9839 1.45173C70.9623 1.45173 71.4822 1.42516 72.1114 1.36591V1.84824C71.7323 1.8321 71.4235 1.94008 71.212 2.18186C70.9487 2.47799 70.9355 2.99295 70.9355 4.4314V8.44054C70.9355 10.8053 71.137 12.355 73.8303 12.355C76.5037 12.355 76.7064 10.761 76.7064 8.33537V3.90034C76.7064 2.52234 76.6402 2.31604 76.3912 2.08915C76.2384 1.95539 75.9152 1.85063 75.5828 1.83128V1.37317C76.1107 1.39211 76.785 1.45173 77.4294 1.45173C78.0479 1.45173 78.6703 1.43564 79.4185 1.36591V1.84824C79.0235 1.8321 78.7242 1.94532 78.5167 2.18186C78.2534 2.47922 78.2386 2.99295 78.2386 4.4314V7.81883C78.2386 8.89745 78.2386 10.1187 77.8982 11.0672C77.3249 12.6648 75.9603 13.4086 73.6021 13.4086ZM89.659 12.8905C90.1299 12.8385 90.4124 12.7861 90.6307 12.5371C90.892 12.2409 90.9072 11.5552 90.9072 10.1014V7.68989C90.9072 6.64709 90.89 6.13378 90.7396 5.9021C90.6047 5.70748 90.3793 5.6281 89.7828 5.58861V5.10228C90.1379 5.15625 91.0017 5.07286 91.704 4.93464C92.0659 4.87543 92.4082 4.75252 92.6277 4.63889L92.8132 4.82625C92.7614 5.36618 92.7394 6.59189 92.7394 8.16814V10.6333C92.7394 11.7486 92.7753 12.2623 92.9229 12.4839C93.0706 12.7124 93.4497 12.8607 93.9492 12.8865V13.2874C93.4457 13.2584 92.5878 13.2092 91.8396 13.2092C91.0057 13.2092 90.1147 13.2431 89.659 13.2958V12.8905ZM91.7339 3.18836C91.0815 3.18836 90.6426 2.76813 90.6426 2.13953C90.6426 1.49084 91.0947 1.05283 91.7678 1.05283C92.4202 1.05283 92.8623 1.47389 92.8623 2.10326C92.8623 2.75319 92.4082 3.18836 91.7339 3.18836ZM125.255 12.8905C125.726 12.8385 126.008 12.7861 126.226 12.5371C126.488 12.2409 126.502 11.5552 126.502 10.1014V7.68989C126.502 6.64709 126.484 6.13378 126.334 5.9021C126.2 5.70748 125.974 5.6281 125.378 5.58861V5.10228C125.733 5.15625 126.597 5.07286 127.3 4.93464C127.662 4.87543 128.004 4.75252 128.223 4.63889L128.409 4.82625C128.357 5.36618 128.335 6.59189 128.335 8.16814V10.6333C128.335 11.7486 128.371 12.2623 128.518 12.4839C128.666 12.7124 129.045 12.8607 129.544 12.8865V13.2874C129.04 13.2584 128.183 13.2092 127.435 13.2092C126.6 13.2092 125.71 13.2431 125.255 13.2958V12.8905ZM127.33 3.18836C126.676 3.18836 126.238 2.76813 126.238 2.13953C126.238 1.49084 126.689 1.05283 127.363 1.05283C128.016 1.05283 128.457 1.47389 128.457 2.10326C128.457 2.75319 128.004 3.18836 127.33 3.18836ZM118.442 12.9876C118.438 12.1169 118.392 11.2155 118.335 10.7594H118.887C118.9 11.2336 119.016 11.5862 119.244 11.865C119.58 12.274 119.98 12.4263 120.721 12.4263H120.823C121.747 12.4263 122.216 12.0334 122.216 11.2598C122.216 10.6232 121.816 10.3673 121.152 9.94508L119.958 9.19964C119.327 8.81002 118.601 8.21369 118.601 7.0573C118.601 6.0709 119.001 5.37224 119.796 4.97735C120.313 4.71625 121.065 4.67598 121.466 4.67598C122.152 4.67598 123.116 4.76663 123.675 4.88752C123.635 5.11515 123.622 5.7095 123.622 5.90169C123.622 6.07738 123.634 6.8812 123.653 7.02627H123.102C123.102 6.66764 123.008 6.33925 122.791 6.056C122.589 5.79289 122.085 5.57128 121.466 5.57128C120.618 5.57128 120.187 5.93313 120.187 6.65114C120.187 7.24181 120.636 7.51784 121.035 7.75958L121.076 7.78657L122.198 8.45947C122.952 8.90393 123.892 9.4559 123.892 10.8166C123.892 13.0408 121.889 13.372 120.693 13.372C119.934 13.372 119.218 13.2745 118.442 12.9876ZM136.12 12.4376C135.868 12.7486 135.216 13.3994 133.857 13.3994C132.567 13.3994 131.844 12.936 131.529 11.8916C131.399 11.4766 131.399 10.6627 131.399 10.1731C131.399 8.82132 131.413 7.74023 131.427 6.48837L131.431 5.89884H130.33V5.56967C130.778 5.39518 131.081 5.21306 131.376 4.98622C132.023 4.47934 132.437 3.84596 132.932 2.95668H133.3V4.85245H136.138V5.89884H133.3V10.3311C133.3 11.6559 133.538 12.4114 134.777 12.4114C135.356 12.4114 135.739 12.2208 135.979 12.0927L136.12 12.4376ZM98.0263 4.8303C97.8587 4.8303 97.4804 4.85245 97.2578 4.86537C96.8293 4.88468 96.3464 4.90766 96.0372 4.90766C95.4255 4.90766 94.5142 4.85328 94.2337 4.82427V5.3255C94.3283 5.32793 94.8083 5.28519 95.0545 5.8195C95.1534 6.03183 95.2412 6.24134 95.2691 6.31107C95.311 6.42066 95.3657 6.55686 95.388 6.60802L98.0782 13.4465L98.9089 13.3019L101.868 6.57901C101.887 6.53429 101.925 6.45895 101.965 6.3695C102.004 6.28566 102.045 6.18011 102.234 5.8344C102.423 5.48988 102.794 5.31382 103.101 5.33556L103.118 4.82427C102.78 4.84923 102.044 4.90766 101.498 4.90766C101.211 4.90766 100.919 4.88831 100.64 4.86858C100.441 4.8565 100.079 4.83512 99.8797 4.8303V5.30536C100.147 5.29971 100.457 5.41334 100.582 5.53823C100.651 5.59587 100.728 5.74775 100.728 5.85977C100.728 6.04915 100.7 6.20025 100.503 6.70997L98.8901 10.7441C98.8131 10.5023 98.7014 10.1659 98.5442 9.74604L97.3966 6.7148C97.2275 6.25426 97.1864 6.0709 97.1864 5.86984C97.1864 5.75262 97.2103 5.66317 97.2953 5.56563C97.4517 5.39036 97.729 5.30536 98.0175 5.30375L98.0263 4.8303ZM79.622 5.17845C80.0461 5.21187 80.6853 5.16834 81.3118 5.05958C81.8376 4.96691 82.0292 4.89153 82.423 4.69129L82.5878 4.78998V5.46046C83.0107 5.14659 83.8575 4.64859 85.0126 4.64859C86.5169 4.64859 87.5024 5.35896 87.7805 6.65155C87.8595 6.97185 87.8906 7.74349 87.8906 8.15931V10.6224C87.8906 12.0165 87.9453 12.4041 88.2027 12.6532C88.3351 12.77 88.6416 12.8977 89.0134 12.8977V13.2926C88.476 13.2664 87.5203 13.2108 86.9458 13.2108C86.1797 13.2108 85.3178 13.2475 84.853 13.3007V12.9139C85.268 12.8695 85.5512 12.7475 85.6961 12.6048C85.9383 12.3598 85.9794 11.8731 86.0141 10.8239C86.0249 10.5116 86.0341 9.84956 86.0341 9.36484C86.0341 8.73546 86.0341 8.07951 85.9622 7.43685C85.8373 6.3433 85.2692 5.8372 84.1894 5.8372C83.4353 5.8372 82.9736 6.01049 82.6225 6.19018V10.6224C82.6225 12.0165 82.6764 12.4041 82.9397 12.6532C83.0674 12.77 83.3946 12.9006 83.7477 12.8977V13.2926C83.0547 13.2555 82.2247 13.2108 81.6916 13.2108C80.5808 13.2108 80.2305 13.2334 79.5861 13.3007V12.9006C79.9472 12.8957 80.2975 12.7656 80.4938 12.5403C80.7472 12.2502 80.7632 11.5298 80.7632 10.0946V7.68305C80.7632 6.63822 80.7444 6.19625 80.5975 5.96936C80.4838 5.79409 80.1965 5.65508 79.622 5.66193V5.17845ZM107.027 13.3905C104.509 13.3905 103.128 11.9227 103.128 9.25728C103.128 8.78704 103.237 4.67598 107.065 4.67598C108.215 4.67598 109.193 5.15064 109.675 5.94196C110.161 6.72767 110.226 7.53798 110.226 8.2278V8.67382H104.976C104.981 9.10899 105.009 9.44183 105.062 9.73998C105.344 11.3698 106.245 12.1616 107.821 12.1616C108.709 12.1616 109.272 11.9702 109.809 11.664L110.056 12.085C109.47 12.8546 108.329 13.3905 107.027 13.3905ZM104.996 7.74547H108.287C108.287 6.745 108.093 5.60594 106.641 5.60594C105.296 5.60594 105.026 6.87918 104.996 7.74547Z" fill="var(--fill-0, #43423E)"/>
</g>
<defs>
<clipPath id="clip0_0_2538">
<rect width="146" height="18" fill="white"/>
</clipPath>
</defs>
</svg>
