<svg preserveAspectRatio="none" width="100%" height="100%" overflow="visible" style="display: block;" viewBox="0 0 602.51 538.068" fill="none" xmlns="http://www.w3.org/2000/svg">
<path id="Vector 48" d="M69.1211 33.5103C68.3342 46.102 67.3216 398.739 69.1211 422.28C79.3482 556.067 260.63 562.363 291.051 450.611C329.614 308.955 384.582 96.3084 391.785 77.5816C438.096 -42.8267 615.288 5.17912 592.465 134.244C584.555 178.977 508.971 461.133 503.536 473.433C460.069 571.806 336.696 529.309 336.696 442.741C336.696 378.991 338.822 97.0628 336.696 85.4511C316.955 -22.3653 190.003 -4.26505 168.282 68.1373C154.116 115.356 56.5301 505.7 52.5952 515.143C42.4299 539.54 3.01532 531.67 8.5242 502.552C14.0331 473.433 128.933 56.3327 131.294 42.1671C136.409 11.475 82.501 -12.1345 69.1211 33.5103Z" stroke="var(--stroke-0, #F83535)" stroke-width="16" stroke-linecap="round"/>
</svg>
