<svg preserveAspectRatio="none" width="100%" height="100%" overflow="visible" style="display: block;" viewBox="0 0 155 32" fill="none" xmlns="http://www.w3.org/2000/svg">
<g id="Stanford logo" clip-path="url(#clip0_0_3004)">
<path id="Vector" d="M40.9266 31.8263C35.3921 31.8263 34.9712 27.7074 34.9712 26.4295C34.9712 24.9391 35.3638 22.3039 38.889 21.0326C42.5237 19.7159 43.3012 19.5641 45.8051 18.792V18.1446C45.8051 16.9543 45.8051 16.6677 45.5604 15.9191C45.084 14.5146 43.6981 13.616 41.8265 13.616C39.9531 13.616 38.4057 14.6343 37.7094 16.1112L36.6871 15.5178C37.339 13.2451 39.6555 10.9876 43.6545 10.9876C46.5005 10.9876 48.3602 11.78 49.4919 13.4946C50.3584 14.8535 50.4354 16.7418 50.4354 18.7043C50.4354 20.4358 50.3815 22.3579 50.3499 23.914C50.3208 24.9863 50.2952 25.9068 50.2952 26.4767C50.2952 27.8879 50.5226 28.9854 51.7211 28.9854C52.2147 28.9854 52.3122 28.8556 52.7365 28.5184L53.3901 29.267C52.3122 30.6512 51.1283 31.7927 49.1369 31.7927C47.5219 31.7927 46.3979 31.0305 46.024 29.756C45.1173 30.6799 43.4912 31.8263 40.9266 31.8263ZM45.8051 21.2721C43.0977 22.0763 42.1661 22.5164 41.3355 22.9446C40.1482 23.5195 39.5546 24.7013 39.5546 26.0974C39.5546 27.1815 39.948 29.0074 42.593 29.0074C43.4664 29.0074 44.7212 28.8422 45.8051 28.0784V21.2721ZM0.151451 30.7423C0.151451 28.7224 0.165992 27.0112 0 24.9391H1.20872C1.22493 26.2187 1.5859 27.1646 2.15054 27.7934C3.01449 28.7544 5.01445 29.3362 6.87242 29.3362C10.7526 29.3362 12.5609 27.8879 12.5609 24.7772C12.5609 22.1117 10.8903 21.0057 8.57474 19.4664L8.21797 19.2202L5.78266 17.6169C2.38915 15.4082 0.653545 13.6328 0.653545 10.0923C0.653545 8.36076 1.32759 2.70768 9.86378 2.70768C12.0186 2.70768 14.85 2.93194 16.5592 3.24547C16.5421 3.51522 16.513 4.80842 16.513 5.89591C16.513 7.15864 16.513 7.57678 16.5626 9.12118H15.5276C15.4951 7.76229 15.1161 6.88724 14.5173 6.29714C13.6919 5.49123 11.8749 5.1153 9.95366 5.1153C5.4293 5.1153 4.89558 7.40146 4.89558 9.12118C4.89558 11.4917 6.12568 12.2891 8.80564 14.0426L11.9048 16.0539C14.5361 17.7855 17.016 19.4175 17.016 23.7201C17.016 31.0036 10.1307 31.7842 7.17007 31.7842C4.48582 31.7842 2.3302 31.4588 0.151451 30.7423ZM55.2147 12.3229C56.2497 12.4021 57.8091 12.2992 59.3335 12.0396C60.6183 11.8204 61.0854 11.6417 62.0469 11.1646L62.4489 11.4006V12.9972C63.4789 12.2486 65.5447 11.0634 68.3616 11.0634C72.0287 11.0634 74.4316 12.7528 75.1108 15.8264C75.3042 16.5918 75.3794 18.4278 75.3794 19.4175V25.2796C75.3794 28.596 75.5128 29.5199 76.1407 30.1117C76.4632 30.3899 77.21 30.6933 78.1168 30.6933V31.6324C76.8063 31.57 74.4787 31.4368 73.0758 31.4368C71.2067 31.4368 69.1058 31.5263 67.9732 31.6544V30.7305C68.9834 30.6259 69.6738 30.3342 70.0279 29.9971C70.6181 29.4137 70.7182 28.2554 70.8046 25.7602C70.8295 25.015 70.8509 23.4419 70.8509 22.287C70.8509 20.7899 70.8509 19.2287 70.6763 17.6977C70.3735 15.098 68.9877 13.8908 66.3548 13.8908C64.5156 13.8908 63.3899 14.3039 62.5328 14.7304V25.2796C62.5328 28.596 62.6653 29.5199 63.3103 30.1117C63.6182 30.3899 64.4164 30.7001 65.2744 30.6933V31.6324C63.5866 31.5465 61.5644 31.4368 60.2641 31.4368C57.5534 31.4368 56.7005 31.4925 55.1282 31.6544V30.6967C56.0102 30.6883 56.863 30.3764 57.3412 29.8419C57.9614 29.1507 57.9999 27.4377 57.9999 24.0202V18.2828C57.9999 15.7977 57.952 14.744 57.5953 14.2061C57.3164 13.7897 56.6175 13.4559 55.2147 13.4727V12.3229ZM80.5393 30.6799C81.3734 30.6933 82.2596 30.3797 82.7548 29.8285C83.3861 29.1338 83.422 27.4377 83.422 24.0202V14.0594H80.7626V12.9315C81.8823 12.5049 82.8643 12.0042 83.422 11.5743C83.4263 9.80571 83.4819 7.50263 83.7291 6.24992C84.5135 2.11421 87.28 0 91.8924 0C93.9283 0 95.8667 0.684451 97.0317 1.66913L97.0985 2.09228L95.0746 4.85391L94.5801 4.86237C93.8915 3.19661 92.8573 2.24231 91.031 2.24231C90.4005 2.24231 89.5203 2.43619 88.9771 2.96224C88.1055 3.82883 87.9489 5.1203 87.9489 7.68641V11.5658H92.4981V14.0594H87.9489V25.2004C87.9489 27.8424 88.0456 29.1406 88.3937 29.6599C88.9617 30.5012 90.7538 30.6006 91.6349 30.5686V31.6324C90.1379 31.5447 87.812 31.4368 86.073 31.4368C83.5461 31.4368 81.9002 31.5111 80.5393 31.6544V30.6799ZM103.988 32C97.7674 32 94.0481 28.1728 94.0481 21.7863C94.0481 16.811 96.7649 11.0247 104.417 11.0247C110.636 11.0247 114.344 14.8349 114.344 21.2333C114.344 26.1901 111.63 32 103.988 32ZM104.246 13.3429C103.033 13.3429 102.071 13.6514 101.35 14.2549C99.7186 15.6106 98.8871 18.0603 98.8871 21.5672C98.8871 22.9193 99.1455 29.6716 104.162 29.6716C105.355 29.6716 106.332 29.3682 107.035 28.7645C108.683 27.4124 109.508 24.9475 109.508 21.439C109.508 20.0986 109.251 13.3429 104.246 13.3429ZM116.398 12.2504C117.784 12.3279 119.283 12.1644 120.854 11.8895C122.066 11.6788 122.839 11.4208 123.274 11.2202L123.643 11.399V13.1423C124.624 12.2352 126.164 11.2792 128.349 11.2792C129.948 11.2792 131.007 11.7192 131.899 12.5184V13.1524L130.189 16.2529H129.351C128.809 15.3155 127.788 14.4405 125.958 14.4405C125.094 14.4405 124.374 14.6462 123.728 15.0744V25.2004C123.728 27.8424 123.816 29.0933 124.166 29.616C124.732 30.4641 126.426 30.5518 127.396 30.5197V31.6324C125.995 31.5566 123.582 31.4368 121.847 31.4368C119.878 31.4368 117.934 31.4723 116.309 31.6544V30.6377C117.447 30.5821 118.084 30.2735 118.525 29.7846C119.158 29.0832 119.189 27.4377 119.189 24.0202V18.2828C119.189 15.7977 119.17 14.7254 118.787 14.2044C118.451 13.7525 117.712 13.4879 116.398 13.4727V12.2504ZM145.074 1.16665C146.304 1.16665 147.91 0.942469 149.862 0.605207C150.974 0.414693 151.719 0.21408 152.078 0.074151L152.433 0.276491C152.257 1.9338 152.256 5.66828 152.256 8.31354V24.6912C152.256 27.1359 152.299 28.6483 152.652 29.1406C152.969 29.5957 153.722 29.9009 155 29.9043V30.9799C153.713 30.9799 152.191 31.1418 150.619 31.3947C149.573 31.5633 148.749 31.7302 148.358 31.9427L147.802 31.7572V30.0645C146.792 30.8046 144.78 31.9528 142.112 31.9528C136.519 31.9528 132.908 28.129 132.908 22.2077C132.908 20.2335 133.293 18.3671 133.999 16.7924C135.718 13.1507 139.264 11.0634 143.737 11.0634C145.372 11.0634 146.838 11.2624 147.714 11.4461V7.17556C147.714 4.67186 147.674 3.33826 147.305 2.80039C147.022 2.38906 146.602 2.18672 145.074 2.08046V1.16665ZM144.364 29.0748C145.756 29.0748 146.698 28.8573 147.714 28.2639V14.8097C147.378 14.4927 146.145 13.466 143.645 13.466C139.678 13.466 137.753 16.1433 137.753 21.6498C137.753 23.9612 138.455 29.0748 144.364 29.0748ZM32.9225 29.6463C32.3065 30.3831 30.7181 31.9326 27.4042 31.9326C24.2546 31.9326 22.4992 30.8299 21.7276 28.3431C21.4119 27.3568 21.4119 25.4229 21.4119 24.2545C21.4119 21.0411 21.4453 18.4649 21.4796 15.4857L21.4916 14.0864H18.802V13.3007C19.8944 12.8843 20.6352 12.451 21.3546 11.9115C22.932 10.706 23.9406 9.1987 25.1492 7.08112H26.0458V11.5928H32.9661V14.0864H26.0458V24.6306C26.0458 27.785 26.6266 29.5806 29.6488 29.5806C31.0602 29.5806 31.9909 29.1271 32.5777 28.8236L32.9225 29.6463Z" fill="var(--fill-0, #8C1515)"/>
</g>
<defs>
<clipPath id="clip0_0_3004">
<rect width="155" height="32" fill="white"/>
</clipPath>
</defs>
</svg>
