<svg preserveAspectRatio="none" width="100%" height="100%" overflow="visible" style="display: block;" viewBox="0 0 114 23.8824" fill="none" xmlns="http://www.w3.org/2000/svg">
<path id="Vector" d="M30.1009 23.7528C26.0303 23.7528 25.7207 20.6787 25.7207 19.725C25.7207 18.6126 26.0095 16.646 28.6022 15.6972C31.2755 14.7144 31.8474 14.6012 33.6889 14.0249V13.5417C33.6889 12.6534 33.6889 12.4395 33.5089 11.8808C33.1585 10.8326 32.1393 10.1619 30.7627 10.1619C29.3849 10.1619 28.2467 10.922 27.7346 12.0242L26.9828 11.5813C27.4622 9.88511 29.166 8.20028 32.1072 8.20028C34.2003 8.20028 35.5681 8.7917 36.4005 10.0714C37.0378 11.0855 37.0944 12.4948 37.0944 13.9594C37.0944 15.2517 37.0548 16.6862 37.0315 17.8476C37.0102 18.6479 36.9913 19.3349 36.9913 19.7602C36.9913 20.8134 37.1586 21.6325 38.04 21.6325C38.4031 21.6325 38.4748 21.5356 38.7869 21.284L39.2675 21.8427C38.4748 22.8757 37.604 23.7276 36.1394 23.7276C34.9516 23.7276 34.1249 23.1588 33.8499 22.2076C33.183 22.8971 31.987 23.7528 30.1009 23.7528ZM33.6889 15.8759C31.6976 16.4761 31.0125 16.8045 30.4016 17.1241C29.5283 17.5532 29.0917 18.4352 29.0917 19.4771C29.0917 20.2862 29.3811 21.6489 31.3264 21.6489C31.9688 21.6489 32.8918 21.5256 33.6889 20.9556V15.8759ZM0.11139 22.9437C0.11139 21.4362 0.122085 20.1591 0 18.6126H0.888994C0.900913 19.5677 1.16641 20.2736 1.58169 20.7429C2.21711 21.4601 3.68805 21.8943 5.05456 21.8943C7.90837 21.8943 9.23835 20.8134 9.23835 18.4918C9.23835 16.5025 8.00965 15.6771 6.30658 14.5283L6.04418 14.3445L4.25305 13.1479C1.75718 11.4995 0.480671 10.1745 0.480671 7.53213C0.480671 6.23984 0.976418 2.02081 7.25465 2.02081C8.8395 2.02081 10.922 2.18818 12.179 2.42217C12.1664 2.6235 12.1451 3.58864 12.1451 4.40026C12.1451 5.34266 12.1451 5.65474 12.1815 6.80736H11.4203C11.3964 5.79318 11.1176 5.14011 10.6772 4.69971C10.0701 4.09824 8.73378 3.81767 7.32075 3.81767C3.99316 3.81767 3.60062 5.52389 3.60062 6.80736C3.60062 8.57652 4.50534 9.17167 6.47641 10.4803L8.75581 11.9814C10.6911 13.2737 12.515 14.4917 12.515 17.7029C12.515 23.1387 7.45096 23.7213 5.27347 23.7213C3.29925 23.7213 1.71382 23.4784 0.11139 22.9437ZM40.6095 9.19686C41.3707 9.256 42.5177 9.17921 43.6388 8.98542C44.5838 8.82185 44.9273 8.68849 45.6345 8.33241L45.9302 8.50855V9.70015C46.6877 9.14146 48.2071 8.25691 50.2788 8.25691C52.976 8.25691 54.7433 9.5177 55.2428 11.8116C55.385 12.3829 55.4403 13.7531 55.4403 14.4917V18.8668C55.4403 21.3419 55.5385 22.0314 56.0003 22.4731C56.2375 22.6807 56.7867 22.9072 57.4536 22.9072V23.6081C56.4898 23.5615 54.7779 23.4621 53.746 23.4621C52.3713 23.4621 50.8262 23.5288 49.9932 23.6244V22.9349C50.7362 22.8569 51.2439 22.6392 51.5044 22.3875C51.9385 21.9522 52.0121 21.0877 52.0756 19.2254C52.0939 18.6693 52.1097 17.4953 52.1097 16.6333C52.1097 15.516 52.1097 14.3508 51.9813 13.2083C51.7585 11.268 50.7393 10.3671 48.8029 10.3671C47.4502 10.3671 46.6222 10.6753 45.9918 10.9937V18.8668C45.9918 21.3419 46.0893 22.0314 46.5637 22.4731C46.7902 22.6807 47.3772 22.9122 48.0083 22.9072V23.6081C46.7669 23.5439 45.2796 23.4621 44.3233 23.4621C42.3296 23.4621 41.7023 23.5036 40.5459 23.6244V22.9097C41.1946 22.9034 41.8218 22.6706 42.1735 22.2718C42.6297 21.7559 42.658 20.4774 42.658 17.9268V13.6449C42.658 11.7902 42.6228 11.0038 42.3604 10.6023C42.1553 10.2916 41.6413 10.0424 40.6095 10.055V9.19686ZM59.2353 22.8971C59.8488 22.9072 60.5006 22.6731 60.8648 22.2617C61.3291 21.7433 61.3555 20.4774 61.3555 17.9268V10.4929H59.3996V9.65106C60.2231 9.33273 60.9454 8.95901 61.3555 8.63817C61.3587 7.31824 61.3996 5.5994 61.5814 4.66447C62.1583 1.57789 64.193 0 67.5854 0C69.0828 0 70.5084 0.510822 71.3653 1.24571L71.4143 1.56152L69.9258 3.62259L69.5621 3.62891C69.0557 2.38571 68.295 1.67349 66.9518 1.67349C66.4881 1.67349 65.8407 1.81819 65.4412 2.21079C64.8001 2.85755 64.685 3.82141 64.685 5.73656V8.63186H68.0308V10.4929H64.685V18.8077C64.685 20.7794 64.7561 21.7483 65.0122 22.1359C65.4299 22.7638 66.7479 22.838 67.396 22.8141V23.6081C66.295 23.5426 64.5843 23.4621 63.3053 23.4621C61.4468 23.4621 60.2363 23.5175 59.2353 23.6244V22.8971ZM76.4815 23.8824C71.9064 23.8824 69.1708 21.026 69.1708 16.2597C69.1708 12.5464 71.169 8.22798 76.7973 8.22798C81.3712 8.22798 84.0979 11.0717 84.0979 15.8469C84.0979 19.5463 82.1023 23.8824 76.4815 23.8824ZM76.6715 9.9581C75.7794 9.9581 75.0716 10.1884 74.5412 10.6388C73.3414 11.6505 72.7299 13.4788 72.7299 16.0961C72.7299 17.1052 72.9199 22.1447 76.6092 22.1447C77.4869 22.1447 78.2053 21.9182 78.7225 21.4677C79.9342 20.4585 80.5414 18.619 80.5414 16.0004C80.5414 15.0001 80.3526 9.9581 76.6715 9.9581ZM85.6091 9.14275C86.6283 9.2006 87.7306 9.07858 88.8863 8.87345C89.7778 8.71619 90.346 8.52363 90.6662 8.3739L90.9374 8.50733V9.80838C91.659 9.13141 92.7915 8.41797 94.3983 8.41797C95.5748 8.41797 96.3537 8.74634 97.0099 9.34278V9.81592L95.7516 12.1299H95.1357C94.7368 11.4303 93.9862 10.7773 92.6398 10.7773C92.0044 10.7773 91.4753 10.9308 90.9997 11.2504V18.8077C90.9997 20.7794 91.0645 21.7131 91.3224 22.1032C91.7383 22.7361 92.984 22.8015 93.6974 22.7776V23.6081C92.6675 23.5514 90.8927 23.4621 89.6168 23.4621C88.1685 23.4621 86.7384 23.4885 85.5437 23.6244V22.8657C86.3805 22.8241 86.8492 22.5939 87.1732 22.229C87.6388 21.7055 87.6614 20.4774 87.6614 17.9268V13.6449C87.6614 11.7902 87.6476 10.9899 87.3657 10.6011C87.1185 10.2639 86.5755 10.0663 85.6091 10.055V9.14275ZM106.699 0.870698C107.604 0.870698 108.786 0.703387 110.221 0.451681C111.039 0.309496 111.587 0.159773 111.851 0.0553407L112.112 0.206352C111.983 1.44324 111.982 4.23037 111.982 6.2046V18.4277C111.982 20.2522 112.013 21.3809 112.273 21.7483C112.506 22.088 113.06 22.3158 114 22.3183V23.1211C113.054 23.1211 111.934 23.2419 110.778 23.4306C110.009 23.5565 109.402 23.681 109.115 23.8396L108.706 23.7012V22.4378C107.963 22.9902 106.484 23.8471 104.521 23.8471C100.407 23.8471 97.7517 20.9933 97.7517 16.5742C97.7517 15.1007 98.0348 13.7078 98.5545 12.5326C99.8184 9.81469 102.426 8.25691 105.716 8.25691C106.919 8.25691 107.997 8.40541 108.641 8.5425V5.35529C108.641 3.48672 108.612 2.49143 108.34 2.09C108.133 1.78301 107.824 1.632 106.699 1.5527V0.870698ZM106.177 21.6992C107.201 21.6992 107.894 21.5369 108.641 21.094V11.0528C108.394 10.8162 107.487 10.05 105.649 10.05C102.731 10.05 101.315 12.0481 101.315 16.1577C101.315 17.8828 101.832 21.6992 106.177 21.6992ZM24.214 22.1258C23.7609 22.6756 22.5927 23.8321 20.1553 23.8321C17.8388 23.8321 16.5478 23.0091 15.9803 21.1532C15.7481 20.417 15.7481 18.9737 15.7481 18.1018C15.7481 15.7035 15.7727 13.7808 15.7979 11.5574L15.8067 10.513H13.8286V9.92666C14.632 9.61588 15.1769 9.29247 15.706 8.88982C16.8662 7.99013 17.6079 6.86521 18.4969 5.28481H19.1562V8.65202H24.246V10.513H19.1562V18.3824C19.1562 20.7367 19.5834 22.0767 21.8062 22.0767C22.8443 22.0767 23.5288 21.7383 23.9604 21.5117L24.214 22.1258Z" fill="var(--fill-0, #43423E)"/>
</svg>
